<svg width="45" height="45" viewBox="0 0 45 45" fill="none" xmlns="http://www.w3.org/2000/svg">
<path d="M41.4894 2.56539H36.8316V1.20364C36.8316 0.538427 36.3566 0 35.7714 0C35.1862 0 34.7112 0.538427 34.7112 1.20364V2.56539H10.2881V1.20364C10.2881 0.538427 9.8138 0 9.22787 0C8.64194 0 8.16768 0.939639 8.16768 1.60485V2.56539H3.51063C1.57473 2.56539 0 4.35319 0 6.55103V41.0144C0 43.2114 1.57473 45 3.51063 45H41.4894C43.4246 45 45 43.2114 45 41.0144V6.55103C45 4.35319 43.4246 2.56539 41.4894 2.56539ZM3.51063 4.97267H8.16768V6.80456C8.16768 7.46977 8.64194 8.00819 9.22787 8.00819C9.8138 8.00819 10.2881 7.46977 10.2881 6.80456V4.97267H34.7119V6.80456C34.7119 7.46977 35.1869 8.00819 35.7721 8.00819C36.3574 8.00819 36.8323 7.46977 36.8323 6.80456V4.97267H41.4901C42.2569 4.97267 42.8803 5.6804 42.8803 6.55103V12.4561H2.12037V6.55103C2.12037 5.6804 2.74376 4.97267 3.51063 4.97267ZM41.4894 42.5919H3.51063C2.74376 42.5919 2.12037 41.8842 2.12037 41.0136V14.8633H42.8796V41.0136C42.8796 41.8842 42.2562 42.5919 41.4894 42.5919Z" fill="#6B5B54"/>
<path d="M6.00773 22.0667C6.00773 21.4019 6.48239 20.863 7.06791 20.863H10.6019C11.1874 20.863 11.6621 21.4019 11.6621 22.0667C11.6621 22.7314 11.1874 23.2703 10.6019 23.2703H7.06791C6.48239 23.2703 6.00773 22.7314 6.00773 22.0667Z" fill="#6B5B54"/>
<path d="M15.196 22.0667C15.196 21.4019 15.6707 20.863 16.2562 20.863H19.7902C20.3757 20.863 20.8503 21.4019 20.8503 22.0667C20.8503 22.7314 20.3757 23.2703 19.7902 23.2703H16.2562C15.6707 23.2703 15.196 22.7314 15.196 22.0667Z" fill="#6B5B54"/>
<path d="M24.3843 22.0667C24.3843 21.4019 24.859 20.863 25.4445 20.863H28.9785C29.564 20.863 30.0386 21.4019 30.0386 22.0667C30.0386 22.7314 29.564 23.2703 28.9785 23.2703H25.4445C24.859 23.2703 24.3843 22.7314 24.3843 22.0667Z" fill="#6B5B54"/>
<path d="M33.5726 22.0667C33.5726 21.4019 34.0473 20.863 34.6328 20.863H38.1667C38.7523 20.863 39.2269 21.4019 39.2269 22.0667C39.2269 22.7314 38.7523 23.2703 38.1667 23.2703H34.6328C34.0473 23.2703 33.5726 22.7314 33.5726 22.0667Z" fill="#6B5B54"/>
<path d="M6.00773 28.4861C6.00773 27.8213 6.48239 27.2824 7.06791 27.2824H10.6019C11.1874 27.2824 11.6621 27.8213 11.6621 28.4861C11.6621 29.1508 11.1874 29.6897 10.6019 29.6897H7.06791C6.48239 29.6897 6.00773 29.1508 6.00773 28.4861Z" fill="#6B5B54"/>
<path d="M15.196 28.4861C15.196 27.8213 15.6707 27.2824 16.2562 27.2824H19.7902C20.3757 27.2824 20.8503 27.8213 20.8503 28.4861C20.8503 29.1508 20.3757 29.6897 19.7902 29.6897H16.2562C15.6707 29.6897 15.196 29.1508 15.196 28.4861Z" fill="#6B5B54"/>
<path d="M24.3843 28.4861C24.3843 27.8213 24.859 27.2824 25.4445 27.2824H28.9785C29.564 27.2824 30.0386 27.8213 30.0386 28.4861C30.0386 29.1508 29.564 29.6897 28.9785 29.6897H25.4445C24.859 29.6897 24.3843 29.1508 24.3843 28.4861Z" fill="#6B5B54"/>
<path d="M33.5726 28.4861C33.5726 27.8213 34.0473 27.2824 34.6328 27.2824H38.1667C38.7523 27.2824 39.2269 27.8213 39.2269 28.4861C39.2269 29.1508 38.7523 29.6897 38.1667 29.6897H34.6328C34.0473 29.6897 33.5726 29.1508 33.5726 28.4861Z" fill="#6B5B54"/>
<path d="M6.00773 34.9055C6.00773 34.2407 6.48239 33.7018 7.06791 33.7018H10.6019C11.1874 33.7018 11.6621 34.2407 11.6621 34.9055C11.6621 35.5702 11.1874 36.1091 10.6019 36.1091H7.06791C6.48239 36.1091 6.00773 35.5702 6.00773 34.9055Z" fill="#6B5B54"/>
<path d="M15.196 34.9055C15.196 34.2407 15.6707 33.7018 16.2562 33.7018H19.7902C20.3757 33.7018 20.8503 34.2407 20.8503 34.9055C20.8503 35.5702 20.3757 36.1091 19.7902 36.1091H16.2562C15.6707 36.1091 15.196 35.5702 15.196 34.9055Z" fill="#6B5B54"/>
<path d="M24.3843 34.9055C24.3843 34.2407 24.859 33.7018 25.4445 33.7018H28.9785C29.564 33.7018 30.0386 34.2407 30.0386 34.9055C30.0386 35.5702 29.564 36.1091 28.9785 36.1091H25.4445C24.859 36.1091 24.3843 35.5702 24.3843 34.9055Z" fill="#6B5B54"/>
<path d="M33.5726 34.9055C33.5726 34.2407 34.0473 33.7018 34.6328 33.7018H38.1667C38.7523 33.7018 39.2269 34.2407 39.2269 34.9055C39.2269 35.5702 38.7523 36.1091 38.1667 36.1091H34.6328C34.0473 36.1091 33.5726 35.5702 33.5726 34.9055Z" fill="#6B5B54"/>
</svg>
