<svg width="27" height="27" viewBox="0 0 27 27" fill="none" xmlns="http://www.w3.org/2000/svg">
<path d="M14.9021 8.58638C14.5115 8.19585 13.8784 8.19585 13.4879 8.58638C13.0973 8.9769 13.0973 9.61007 13.4879 10.0006L14.9021 8.58638ZM18.4565 13.555L19.1634 14.2623C19.3511 14.0748 19.4565 13.8204 19.4565 13.5552C19.4566 13.2899 19.3512 13.0355 19.1636 12.8479L18.4565 13.555ZM13.5962 16.999C13.2055 17.3894 13.2054 18.0226 13.5958 18.4132C13.9862 18.8038 14.6194 18.804 15.01 18.4136L13.5962 16.999ZM8.54303 12.4998C7.99074 12.4998 7.54303 12.9475 7.54303 13.4998C7.54303 14.0521 7.99074 14.4998 8.54303 14.4998V12.4998ZM18.4565 14.4998C19.0088 14.4998 19.4565 14.0521 19.4565 13.4998C19.4565 12.9475 19.0088 12.4998 18.4565 12.4998V14.4998ZM13.4879 10.0006L17.7494 14.2622L19.1636 12.8479L14.9021 8.58638L13.4879 10.0006ZM17.7496 12.8478L13.5962 16.999L15.01 18.4136L19.1634 14.2623L17.7496 12.8478ZM8.54303 14.4998H18.4565V12.4998H8.54303V14.4998ZM2 13.5C2 7.14873 7.14873 2 13.5 2V0C6.04416 0 0 6.04416 0 13.5H2ZM13.5 2C19.8513 2 25 7.14873 25 13.5H27C27 6.04416 20.9558 0 13.5 0V2ZM25 13.5C25 19.8513 19.8513 25 13.5 25V27C20.9558 27 27 20.9558 27 13.5H25ZM13.5 25C7.14873 25 2 19.8513 2 13.5H0C0 20.9558 6.04416 27 13.5 27V25Z" fill="white"/>
</svg>
