<svg width="24" height="20" viewBox="0 0 24 20" fill="none" xmlns="http://www.w3.org/2000/svg">
<path d="M20.7273 0H3.27273C1.46536 0 0 1.4925 0 3.33333V16.6667C0 18.5075 1.46536 20 3.27273 20H20.7273C22.5346 20 24 18.5075 24 16.6667V3.33333C24 1.4925 22.5346 0 20.7273 0ZM20.7273 2.22222C20.8525 2.22222 20.9708 2.24806 21.0826 2.2875L12 9.68806L2.91736 2.2875C3.02945 2.24806 3.14755 2.22222 3.27273 2.22222H20.7273ZM20.7273 17.7778H3.27273C2.67 17.7778 2.18182 17.2806 2.18182 16.6667V4.53417L11.3185 11.9786C11.5175 12.1411 11.7589 12.2222 12 12.2222C12.2411 12.2222 12.4825 12.1411 12.6815 11.9786L21.8182 4.53417V16.6667C21.8182 17.2806 21.33 17.7778 20.7273 17.7778Z" fill="white"/>
</svg>
