<svg width="20" height="20" viewBox="0 0 20 20" fill="none" xmlns="http://www.w3.org/2000/svg">
<path d="M14.706 8.19696V0H6.32382V4.5248H0V19.9892H6.32382V20H20V8.19665H14.706V8.19696ZM4.16878 19.3337V15.6151H2.74348V19.3337H0.588403V5.18042H6.32382V19.3337H4.16878ZM19.4117 19.3444H11.9606V12.7324H9.41162V19.3444H6.91186V4.5248V0.655977H14.1175V8.8529H19.4117V19.3444ZM7.67414 2.24035H8.89982V5.27904H7.67414V2.24035ZM10.0227 2.24035H11.2479V5.27904H10.0227V2.24035ZM12.2817 2.24035H13.5075V5.27904H12.2817V2.24035ZM7.67414 6.90683H8.89982V10.2735H7.67414V6.90683ZM10.0227 6.90683H11.2479V10.2735H10.0227V6.90683ZM12.2817 6.90683H13.5075V10.2735H12.2817V6.90683ZM15.6886 13.4486H14.4633V10.3279H15.6886V13.4486ZM15.6886 18.4428H14.4633V15.2403H15.6886V18.4428ZM18.2618 13.4486H17.0366V10.3279H18.2618V13.4486ZM18.2618 18.4428H17.0366V15.2403H18.2618V18.4428ZM1.55663 6.27056H2.78191V9.39104H1.55663V6.27056ZM1.55663 11.1826H2.78191V14.3851H1.55663V11.1826ZM4.12996 6.27056H5.35519V9.39104H4.12996V6.27056ZM4.12996 11.1826H5.35519V14.3851H4.12996V11.1826Z" fill="white"/>
</svg>
