<svg width="21" height="21" viewBox="0 0 21 21" fill="none" xmlns="http://www.w3.org/2000/svg">
<path d="M10.0635 12.8952C8.26581 11.4334 7.06091 9.62408 6.42702 8.5943L5.95357 7.71342C6.11645 7.53672 7.35863 6.19188 7.89613 5.46296C8.5716 4.54764 7.58051 3.72975 7.58051 3.72975C7.58051 3.72975 4.78928 0.968553 4.1536 0.421287C3.51792 -0.126749 2.79133 0.183547 2.79133 0.183547C1.46634 1.04999 0.0919653 1.80451 0.0289543 5.39735C0.0443006 8.76074 2.61649 12.2158 5.39219 14.8862C8.17423 17.9041 11.9878 20.9232 15.6586 20.8996C19.2502 20.798 19.9894 19.4156 20.8413 18.0812C20.8413 18.0812 21.1438 17.3518 20.5894 16.7216C20.0346 16.0916 17.2426 13.3302 17.2426 13.3302C17.2426 13.3302 16.4145 12.348 15.5064 13.034C14.8297 13.5457 13.6157 14.6821 13.3232 14.9577C13.3238 14.9586 11.2766 13.8817 10.0635 12.8952Z" fill="white"/>
</svg>
